<svg width="25" height="28" viewBox="0 0 25 28" fill="none" xmlns="http://www.w3.org/2000/svg">
<g clip-path="url(#clip0)">
<path d="M0 14.0476C0 21.6744 5.59641 27.8571 12.5 27.8571C19.4035 27.8571 24.9999 21.6744 24.9999 14.0476C24.9999 6.42085 19.4035 0.23815 12.5 0.23815C5.59967 0.246706 0.00779551 6.4244 0 14.0476Z" fill="#009688"/>
<path d="M5.32608 11.5259C4.39424 12.6032 4.39424 14.2996 5.32608 15.377C6.28809 16.4404 7.84831 16.4409 8.81088 15.3781C8.81123 15.3777 8.81159 15.3773 8.81195 15.377L9.79021 14.2962V21.2526C9.79021 22.9106 11.0068 24.2547 12.5076 24.2547C14.0084 24.2547 15.225 22.9106 15.225 21.2526L15.225 14.2962L16.2033 15.377C17.2312 16.3632 18.7882 16.2422 19.681 15.1065C20.489 14.0788 20.486 12.5497 19.6739 11.5259L13.6489 4.8697C13.0122 4.16654 11.9802 4.16654 11.3435 4.8697L5.32608 11.5259Z" fill="#FAFAFA"/>
</g>
<defs>
<clipPath id="clip0">
<rect width="27.619" height="25" fill="white" transform="translate(0 27.8571) rotate(-90)"/>
</clipPath>
</defs>
</svg>
