<svg width="25" height="25" viewBox="0 0 25 25" fill="none" xmlns="http://www.w3.org/2000/svg">
<path d="M12.5 25C19.4036 25 25 19.4036 25 12.5C25 5.59644 19.4036 0 12.5 0C5.59644 0 0 5.59644 0 12.5C0 19.4036 5.59644 25 12.5 25Z" fill="white"/>
<path d="M21.3395 3.66089C16.4579 -1.22019 8.54307 -1.22073 3.66089 3.66089C-1.22073 8.54252 -1.22019 16.4574 3.66089 21.3395C8.54252 26.2201 16.4574 26.2206 21.3395 21.3395C26.2206 16.4574 26.2201 8.54306 21.3395 3.66089ZM14.1301 17.9351C14.1301 18.8357 13.4002 19.5656 12.4997 19.5656C11.5991 19.5656 10.8692 18.8357 10.8692 17.9351V11.4132C10.8692 10.5127 11.5991 9.78277 12.4997 9.78277C13.4002 9.78277 14.1301 10.5127 14.1301 11.4132V17.9351ZM12.4709 8.62622C11.5317 8.62622 10.9056 7.96099 10.9252 7.13977C10.9056 6.27889 11.5317 5.63376 12.4899 5.63376C13.4486 5.63376 14.0551 6.27943 14.0753 7.13977C14.0747 7.96099 13.4492 8.62622 12.4709 8.62622Z" fill="#009688"/>
</svg>
